# xmcd CD database file
#
# Track frame offsets:
#	180
#	26990
#	42338
#	63591
#	83978
#	96806
#	112987
#	123561
#	146756
#	164962
#	180036
#
# Disc length: 2611 seconds
#
# Revision: 0
# Processed by: cddbd v1.5PL3 Copyright (c) Steve Scherf et al.
# Submitted via: CDex 1.51
#
DISCID=9b0a310b
DTITLE=Murcury - 13 Ways To Go
DYEAR=1900
DGENRE=Country
TTITLE0=Porcelyne
TTITLE1=TFBh
TTITLE2=Hollow
TTITLE3=Circus Song
TTITLE4=13
TTITLE5=Directions
TTITLE6=Montage Collage
TTITLE7=Final Flight
TTITLE8=Occupation
TTITLE9=Nuclei Aesagi
TTITLE10=Bonus Track
EXTD=
EXTT0=
EXTT1=
EXTT2=
EXTT3=
EXTT4=
EXTT5=
EXTT6=
EXTT7=
EXTT8=
EXTT9=
EXTT10=
PLAYORDER=
